<!DOCTYPE svg PUBLIC "-//W3C//DTD SVG 20010904//EN" "http://www.w3.org/TR/2001/REC-SVG-20010904/DTD/svg10.dtd">
<svg version="1.0" xmlns="http://www.w3.org/2000/svg" width="1200px" height="1200px" viewBox="0 0 12000 12000" preserveAspectRatio="xMidYMid meet">
<g id="layer101" fill="#000000" stroke="none">
 <path d="M8925 5215 c-49 -17 -90 -62 -104 -112 -14 -50 -14 -237 0 -288 14 -50 64 -100 114 -114 56 -15 2474 -15 2530 0 50 14 100 64 114 114 14 52 14 238 0 290 -14 50 -64 100 -114 114 -28 8 -407 11 -1270 11 -1034 -1 -1236 -3 -1270 -15z"/>
 <path d="M10145 4525 c-30 -11 -99 -75 -290 -267 -137 -139 -393 -398 -569 -575 l-319 -322 -5 -53 c-5 -69 19 -124 68 -153 33 -19 55 -20 365 -25 l330 -5 5 -510 c5 -549 4 -540 58 -588 46 -42 82 -46 412 -46 330 0 366 4 412 46 54 48 53 39 58 588 l5 510 330 5 c293 4 334 7 363 23 49 27 72 71 72 142 l0 59 -323 326 c-178 179 -433 437 -567 573 -135 137 -256 255 -270 262 -42 22 -92 26 -135 10z"/>
 </g>
<g id="layer102" fill="#bd6363" stroke="none">
 <path d="M8902 5210 c-46 -29 -31 -45 19 -20 22 12 37 25 34 30 -9 14 -16 13 -53 -10z"/>
 <path d="M11445 5220 c-3 -5 12 -18 34 -30 50 -25 65 -9 19 20 -37 23 -44 24 -53 10z"/>
 <path d="M8830 5138 c-23 -37 -24 -44 -10 -53 5 -3 18 12 30 34 25 50 9 65 -20 19z"/>
 <path d="M11537 5163 c-3 -3 3 -23 14 -45 14 -27 24 -37 31 -30 6 6 4 20 -6 40 -17 33 -30 45 -39 35z"/>
 <path d="M11526 4770 c-29 -35 -26 -56 4 -40 26 14 45 49 32 62 -6 6 -19 -2 -36 -22z"/>
 <path d="M8845 4770 c-3 -5 4 -19 15 -30 24 -24 45 -18 30 9 -11 22 -37 34 -45 21z"/>
 <path d="M10150 4533 c-23 -9 -40 -24 -35 -33 3 -4 23 -2 45 6 34 12 46 12 80 0 42 -14 60 -7 35 14 -16 13 -100 21 -125 13z"/>
 <path d="M9735 2120 c-10 -17 31 -84 46 -74 8 5 -26 84 -36 84 -2 0 -7 -4 -10 -10z"/>
 <path d="M10630 2091 c-25 -50 -9 -65 20 -19 23 37 24 44 10 53 -5 3 -18 -12 -30 -34z"/>
 <path d="M9795 2030 c-3 -5 9 -19 27 -30 37 -23 44 -24 53 -10 3 5 -12 18 -34 30 -24 12 -42 16 -46 10z"/>
 <path d="M10556 2018 c-25 -13 -35 -23 -28 -30 10 -10 65 12 77 31 11 19 -11 19 -49 -1z"/>
 </g>
<g id="layer103" fill="#db6d6d" stroke="none">
 <path d="M0 6000 l0 -6000 6000 0 6000 0 0 6000 0 6000 -6000 0 -6000 0 0 -6000z m933 3981 c9 -9 13 -121 17 -429 l5 -417 310 -6 c330 -6 374 -12 483 -62 142 -66 232 -187 267 -359 23 -115 22 -974 -1 -1085 -42 -206 -154 -328 -359 -391 -42 -13 -141 -16 -608 -19 -518 -4 -560 -3 -578 13 -19 17 -19 53 -19 1374 0 1293 1 1358 18 1373 14 13 46 17 157 20 205 5 294 2 308 -12z m2684 -7 c222 -46 351 -175 397 -397 14 -67 16 -214 16 -1197 l0 -1121 -25 -24 c-24 -25 -25 -25 -228 -25 -191 0 -205 1 -225 20 -12 12 -23 22 -24 23 -2 1 -5 482 -8 1069 -5 1059 -5 1067 -26 1095 -40 54 -73 63 -241 63 -170 0 -218 -11 -250 -58 -17 -26 -18 -86 -23 -1095 l-5 -1069 -28 -24 c-28 -24 -31 -24 -238 -24 l-210 0 -25 25 -25 25 4 1152 c2 1017 5 1159 19 1203 64 205 182 315 384 359 103 22 655 22 761 0z m2197 0 c14 -13 16 -49 16 -238 0 -196 -2 -225 -17 -237 -13 -11 -98 -15 -422 -19 l-406 -5 -5 -1115 c-3 -613 -6 -1116 -8 -1117 -1 -1 -9 -9 -18 -17 -13 -14 -49 -16 -241 -16 -197 0 -229 2 -245 17 -17 15 -18 71 -18 1371 0 1247 1 1357 17 1374 15 17 49 18 674 18 584 0 659 -2 673 -16z m1800 0 c14 -13 16 -49 16 -238 0 -196 -2 -225 -17 -237 -13 -11 -98 -15 -422 -19 l-406 -5 -5 -1115 c-3 -613 -6 -1116 -8 -1117 -1 -1 -9 -9 -18 -17 -13 -14 -49 -16 -241 -16 -197 0 -229 2 -245 17 -17 15 -18 71 -18 1371 0 1247 1 1357 17 1374 15 17 49 18 674 18 584 0 659 -2 673 -16z m1960 -6 c22 -32 24 -434 2 -464 -14 -18 -34 -19 -523 -24 l-508 -5 0 -300 0 -300 384 -3 c340 -2 387 -4 403 -19 16 -15 18 -36 18 -238 0 -202 -2 -223 -18 -238 -16 -15 -63 -17 -403 -19 l-384 -3 0 -315 0 -315 505 -2 c501 -3 505 -3 523 -24 15 -19 17 -46 17 -233 0 -175 -3 -215 -16 -234 l-15 -22 -756 0 c-690 0 -758 1 -775 17 -17 15 -18 71 -18 1371 0 1247 1 1357 17 1374 15 17 52 18 774 18 l758 0 15 -22z m879 4 c15 -16 17 -64 19 -418 l3 -399 179 -3 c99 -1 183 1 187 5 5 5 52 186 105 403 53 220 103 403 111 413 14 15 39 17 234 17 189 0 220 -2 234 -16 10 -10 14 -26 11 -38 -3 -12 -51 -211 -108 -443 l-102 -422 65 -63 c76 -75 120 -158 143 -270 24 -114 23 -1003 0 -1115 -42 -206 -154 -328 -359 -391 -42 -13 -141 -16 -608 -19 -518 -4 -560 -3 -578 13 -19 17 -19 53 -19 1372 0 1247 1 1357 17 1374 15 16 36 18 233 18 197 0 218 -2 233 -18z m996 -4773 c55 -12 98 -55 110 -110 14 -59 14 -199 0 -257 -15 -61 -39 -86 -102 -106 -47 -15 -167 -16 -1277 -14 -1203 3 -1226 3 -1265 23 -57 29 -78 76 -83 196 -7 169 26 247 115 268 54 13 2446 13 2502 0z m-9831 -25 c170 -34 294 -124 355 -258 48 -103 58 -170 64 -427 3 -135 3 -262 -1 -282 -13 -67 -12 -67 -260 -67 -167 0 -226 3 -234 13 -6 7 -11 99 -14 217 -3 192 -5 207 -26 242 -35 57 -76 68 -255 68 -168 0 -201 -9 -241 -63 -21 -28 -21 -33 -21 -1016 0 -926 1 -989 18 -1014 38 -58 55 -62 248 -62 164 0 180 2 205 21 67 49 68 55 72 282 3 119 8 212 14 220 8 9 68 12 238 12 200 0 229 -2 241 -17 11 -13 14 -72 14 -287 -1 -232 -3 -282 -19 -346 -54 -213 -168 -328 -376 -381 -79 -20 -698 -20 -790 0 -150 32 -270 122 -333 248 -64 126 -62 86 -62 1323 0 1238 -2 1197 62 1324 66 131 177 212 338 247 113 25 647 27 763 3z m1879 0 c222 -46 351 -175 397 -397 14 -67 16 -212 16 -1177 0 -965 -2 -1110 -16 -1177 -43 -211 -167 -341 -374 -394 -79 -20 -721 -20 -800 0 -198 51 -320 173 -371 371 -12 46 -14 249 -14 1200 0 951 2 1154 14 1200 53 206 181 329 387 374 103 22 655 22 761 0z m2000 0 c222 -46 351 -175 397 -397 14 -67 16 -211 16 -1170 0 -1209 1 -1192 -63 -1324 -40 -84 -115 -161 -198 -204 -123 -62 -120 -62 -728 -66 -512 -4 -554 -3 -572 13 -19 17 -19 58 -19 1575 0 1403 2 1559 16 1573 23 24 1037 24 1151 0z m2317 -6 c22 -32 24 -434 2 -464 -14 -18 -34 -19 -533 -24 l-518 -5 0 -405 0 -405 395 -5 c217 -3 396 -7 397 -8 1 -1 9 -9 17 -18 22 -22 24 -439 2 -470 -14 -18 -33 -19 -413 -24 l-398 -5 0 -405 0 -405 515 -2 c511 -3 515 -3 533 -24 15 -19 17 -46 17 -233 0 -175 -3 -215 -16 -234 l-15 -22 -756 0 c-690 0 -758 1 -775 17 -17 15 -18 77 -18 1571 0 1433 1 1557 17 1574 15 17 52 18 774 18 l758 0 15 -22z m2428 -657 c13 -5 140 -128 284 -273 684 -692 878 -889 886 -901 15 -23 8 -101 -10 -122 -56 -63 -32 -60 -406 -65 l-341 -5 -5 -515 c-3 -288 -9 -524 -14 -535 -18 -38 -64 -74 -107 -84 -57 -14 -601 -14 -658 0 -43 10 -89 46 -107 84 -5 11 -11 247 -14 535 l-5 515 -340 5 c-386 6 -378 4 -411 89 -30 79 -29 80 310 423 171 172 427 432 570 576 144 145 270 268 281 272 27 12 59 12 87 1z"/>
 <path d="M955 8618 c-3 -7 -4 -213 -3 -458 l3 -445 230 -3 c254 -2 276 2 319 61 20 28 21 40 21 390 0 327 -2 365 -18 394 -34 63 -56 68 -315 71 -185 3 -233 1 -237 -10z"/>
 <path d="M10475 8638 c-3 -7 -4 -218 -3 -468 l3 -455 220 -3 c252 -3 282 2 322 55 l28 36 0 371 c0 336 -2 374 -18 403 -34 63 -56 68 -315 71 -185 3 -233 1 -237 -10z"/>
 <path d="M2913 4670 c-18 -10 -40 -34 -50 -52 -17 -31 -18 -88 -18 -1013 0 -1072 -3 -1024 59 -1068 29 -20 44 -22 205 -25 209 -4 249 5 281 69 20 37 20 62 20 1021 0 933 -1 985 -18 1017 -34 63 -64 71 -267 71 -161 0 -183 -2 -212 -20z"/>
 <path d="M4865 4668 c-3 -7 -4 -492 -3 -1078 l3 -1065 220 0 c241 0 250 2 292 63 17 26 18 76 18 1014 0 982 0 987 -21 1015 -42 57 -68 63 -297 63 -157 0 -209 -3 -212 -12z"/>
 </g>
<g id="layer104" fill="#ffffff" stroke="none">
 <path d="M605 10013 c-111 -3 -143 -7 -157 -20 -17 -15 -18 -81 -18 -1393 0 -1340 1 -1377 19 -1394 18 -16 61 -17 598 -13 624 4 607 2 735 60 77 34 172 131 208 211 56 123 60 168 60 701 0 543 -4 584 -65 711 -42 86 -126 169 -211 208 -117 54 -156 59 -489 65 l-310 6 -5 417 c-4 317 -8 420 -18 430 -14 14 -117 17 -347 11z m832 -1426 c67 -36 68 -43 68 -424 0 -330 -1 -343 -21 -370 -43 -58 -67 -63 -299 -61 l-210 3 -3 425 c-1 234 0 431 3 438 4 11 48 13 217 10 181 -3 218 -6 245 -21z"/>
 <path d="M2836 9994 c-202 -44 -319 -154 -384 -359 -14 -44 -17 -188 -19 -1223 l-4 -1172 25 -25 25 -25 230 0 c229 0 230 0 258 24 l28 24 5 1069 c5 1009 6 1069 23 1095 31 45 82 58 230 58 146 0 183 -10 221 -63 21 -28 21 -36 26 -1092 l5 -1063 24 -26 24 -26 224 0 224 0 24 25 25 24 0 1141 c0 1002 -2 1150 -16 1217 -46 222 -175 351 -397 397 -106 22 -698 22 -801 0z"/>
 <path d="M4447 9992 c-16 -17 -17 -128 -17 -1394 0 -1319 1 -1376 18 -1391 16 -15 50 -17 264 -17 236 0 246 1 264 21 18 20 19 57 24 1133 l5 1111 406 5 c324 4 409 8 422 19 15 12 17 43 17 256 0 222 -2 243 -18 258 -17 16 -80 17 -694 17 -641 0 -676 -1 -691 -18z"/>
 <path d="M6247 9992 c-16 -17 -17 -128 -17 -1394 0 -1319 1 -1376 18 -1391 16 -15 50 -17 264 -17 236 0 246 1 264 21 18 20 19 57 24 1133 l5 1111 406 5 c324 4 409 8 422 19 15 12 17 43 17 256 0 222 -2 243 -18 258 -17 16 -80 17 -694 17 -641 0 -676 -1 -691 -18z"/>
 <path d="M8007 9992 c-16 -17 -17 -128 -17 -1394 0 -1319 1 -1376 18 -1391 17 -16 87 -17 795 -17 l776 0 15 22 c13 19 16 61 16 254 0 206 -2 234 -17 253 -18 21 -22 21 -523 24 l-505 2 0 295 0 295 384 3 c340 2 387 4 403 19 16 15 18 37 18 258 0 221 -2 243 -18 258 -16 15 -63 17 -403 19 l-384 3 0 280 0 280 508 5 c489 5 509 6 523 24 22 30 20 472 -2 504 l-15 22 -778 0 c-741 0 -779 -1 -794 -18z"/>
 <path d="M9967 9992 c-16 -17 -17 -128 -17 -1394 0 -1338 1 -1375 19 -1392 18 -16 61 -17 598 -13 624 4 607 2 735 60 77 34 172 131 208 211 56 124 60 167 60 716 0 417 -3 514 -16 578 -22 109 -67 195 -140 267 l-60 60 102 420 c57 231 103 432 104 446 1 56 -14 59 -272 59 -211 0 -236 -2 -251 -17 -8 -10 -58 -193 -111 -413 -53 -217 -100 -398 -105 -403 -4 -4 -79 -6 -167 -5 l-159 3 -3 399 c-2 354 -4 402 -19 418 -15 16 -37 18 -253 18 -217 0 -238 -2 -253 -18z m990 -1385 c67 -36 68 -42 68 -433 l0 -351 -28 -36 c-40 -53 -72 -58 -302 -55 l-200 3 -3 435 c-1 239 0 441 3 448 4 11 48 13 217 10 181 -3 218 -6 245 -21z"/>
 <path d="M835 5191 c-161 -35 -272 -116 -338 -247 -64 -127 -62 -84 -62 -1344 0 -1259 -2 -1217 62 -1343 63 -126 183 -216 333 -248 92 -20 751 -20 830 0 150 37 279 135 332 251 55 122 63 180 63 496 0 232 -3 294 -14 307 -12 15 -43 17 -261 17 -186 0 -250 -3 -258 -12 -6 -8 -12 -100 -14 -218 -4 -227 -9 -248 -72 -286 -27 -16 -52 -19 -186 -19 -170 0 -190 6 -227 62 -17 25 -18 87 -18 994 0 963 0 968 21 996 38 53 75 63 221 63 157 0 201 -13 235 -68 21 -35 23 -50 26 -242 3 -118 8 -210 14 -217 8 -10 71 -13 253 -13 233 0 243 1 261 21 18 20 19 40 19 308 -1 311 -8 370 -63 491 -35 76 -133 172 -214 210 -115 53 -182 60 -540 59 -268 0 -337 -3 -403 -18z"/>
 <path d="M2716 5194 c-206 -45 -334 -168 -387 -374 -12 -46 -14 -251 -14 -1220 0 -969 2 -1174 14 -1220 51 -198 173 -320 371 -371 79 -20 761 -20 840 0 153 39 275 134 330 255 61 134 60 107 60 1336 0 983 -2 1130 -16 1197 -46 222 -175 351 -397 397 -106 22 -698 22 -801 0z m603 -542 c19 -10 43 -34 53 -53 17 -32 18 -83 18 -997 0 -939 0 -964 -20 -1001 -31 -62 -74 -74 -261 -69 -140 3 -157 5 -185 25 -62 44 -59 -2 -59 1048 0 905 1 962 18 993 35 64 62 72 242 72 136 0 165 -3 194 -18z"/>
 <path d="M4327 5192 c-16 -17 -17 -142 -17 -1594 0 -1533 1 -1575 19 -1592 17 -16 62 -17 592 -13 630 4 624 3 748 66 83 43 158 120 198 204 64 133 63 113 63 1344 0 1223 1 1194 -60 1330 -39 85 -128 174 -213 213 -126 57 -162 60 -765 60 -519 0 -550 -1 -565 -18z m972 -550 c19 -9 44 -30 55 -45 21 -28 21 -33 21 -995 0 -919 -1 -968 -18 -994 -41 -60 -53 -63 -272 -63 l-200 0 -3 1045 c-1 575 0 1051 3 1058 3 9 51 12 192 12 159 0 193 -3 222 -18z"/>
 <path d="M6247 5192 c-16 -17 -17 -142 -17 -1594 0 -1513 1 -1576 18 -1591 17 -16 87 -17 795 -17 l776 0 15 22 c13 19 16 61 16 254 0 206 -2 234 -17 253 -18 21 -22 21 -533 24 l-515 2 0 385 0 385 398 5 c380 5 399 6 413 24 11 16 14 68 14 256 0 228 -1 238 -21 256 -20 18 -46 19 -413 24 l-391 5 0 385 0 385 518 5 c499 5 519 6 533 24 22 30 20 472 -2 504 l-15 22 -778 0 c-741 0 -779 -1 -794 -18z"/>
 </g>

</svg>