<!DOCTYPE svg PUBLIC "-//W3C//DTD SVG 20010904//EN" "http://www.w3.org/TR/2001/REC-SVG-20010904/DTD/svg10.dtd">
<svg version="1.0" xmlns="http://www.w3.org/2000/svg" width="1200px" height="1200px" viewBox="0 0 12000 12000" preserveAspectRatio="xMidYMid meet">
<g id="layer101" fill="#5ebaec" stroke="none">
 <path d="M0 6000 l0 -6000 6000 0 6000 0 0 6000 0 6000 -6000 0 -6000 0 0 -6000z"/>
 </g>
<g id="layer102" fill="#72c1ea" stroke="none">
 <path d="M1225 11988 c-2 -7 -279 -859 -615 -1893 l-610 -1879 0 -4108 0 -4108 6000 0 6000 0 0 6000 0 6000 -5385 0 c-4300 0 -5386 -3 -5390 -12z"/>
 </g>
<g id="layer103" fill="#8fcee9" stroke="none">
 <path d="M6041 11978 c-5 -13 -273 -839 -597 -1835 -324 -997 -592 -1813 -595 -1813 -3 0 -22 24 -42 54 -138 208 -395 381 -677 455 -217 58 -186 56 -1090 56 -824 0 -837 0 -952 -22 -630 -122 -982 -504 -1063 -1156 -23 -183 -23 -5511 0 -5694 78 -628 415 -1011 1000 -1139 89 -19 284 -44 348 -44 35 0 48 -4 44 -12 -2 -7 -62 -191 -132 -408 -70 -217 -130 -401 -133 -407 -3 -10 985 -13 4922 -13 l4926 0 0 6000 0 6000 -2975 0 -2975 0 -9 -22z m-2562 -4437 c82 -28 131 -64 169 -121 64 -95 65 -106 70 -634 3 -445 5 -482 22 -516 31 -61 63 -70 255 -70 129 0 166 -3 163 -12 -2 -7 -296 -912 -653 -2010 l-648 -1998 -71 0 c-203 0 -337 100 -375 278 -8 38 -11 705 -11 2419 0 2583 -3 2428 56 2529 48 84 143 138 265 153 41 5 214 8 384 7 292 -2 314 -4 374 -25z"/>
 </g>
<g id="layer104" fill="#addbe7" stroke="none">
 <path d="M9717 11573 c-77 -234 -143 -437 -148 -450 l-8 -23 -36 25 c-70 47 -182 45 -256 -5 -24 -16 -353 -339 -731 -717 -744 -745 -731 -730 -731 -838 0 -84 31 -136 151 -257 118 -117 172 -150 251 -151 99 -1 101 0 479 376 l352 352 0 -195 1 -195 -533 -1642 -533 -1643 -267 0 -268 0 -2 1293 c-3 1222 -4 1294 -21 1325 -10 18 -32 42 -50 52 -31 19 -54 20 -616 20 -568 0 -585 -1 -616 -20 -18 -11 -41 -33 -51 -48 -18 -26 -19 -149 -22 -3927 -1 -2145 0 -3919 3 -3943 8 -57 57 -106 118 -118 l45 -9 -134 -410 c-73 -226 -134 -413 -134 -417 0 -5 1359 -8 3020 -8 l3020 0 0 6000 0 6000 -1073 0 -1072 0 -138 -427z m-2223 -6840 c-24 -76 -46 -142 -48 -148 -3 -5 -5 56 -5 138 l-1 147 49 0 49 0 -44 -137z"/>
 <path d="M2180 8884 c-702 -93 -1098 -516 -1159 -1237 -15 -179 -15 -5375 0 -5554 45 -535 276 -906 683 -1099 160 -75 296 -112 516 -140 168 -21 1461 -20 1640 1 650 77 1041 427 1159 1040 33 169 43 414 39 1000 -3 519 -4 541 -23 573 -11 18 -36 43 -55 55 -35 22 -37 22 -595 22 l-560 0 -36 -23 c-68 -42 -69 -49 -69 -530 0 -235 -5 -458 -10 -497 -22 -153 -104 -255 -239 -295 -63 -18 -96 -20 -412 -20 -306 0 -352 2 -412 19 -111 31 -177 89 -221 195 l-21 51 -3 2395 c-2 1807 0 2409 9 2450 16 76 50 140 99 184 52 47 108 71 198 85 89 14 603 14 697 1 77 -12 154 -43 200 -83 34 -28 82 -110 98 -166 6 -21 13 -240 16 -528 6 -477 7 -492 27 -520 47 -64 32 -63 638 -63 528 0 551 1 590 20 23 11 50 34 61 52 19 32 20 54 23 573 4 580 -6 832 -37 994 -120 617 -502 966 -1144 1046 -170 21 -1537 20 -1697 -1z"/>
 </g>
<g id="layer105" fill="#bee2e6" stroke="none">
 <path d="M9318 11147 c-20 -8 -54 -28 -75 -45 -21 -17 -343 -336 -715 -709 -733 -734 -721 -720 -721 -828 0 -84 31 -136 151 -257 118 -117 172 -150 251 -151 99 -1 101 0 479 376 l352 352 0 -1500 c0 -1063 3 -1512 11 -1540 16 -56 100 -139 158 -155 29 -7 105 -10 215 -8 187 3 204 8 265 69 72 71 66 -75 69 1614 l2 1519 353 -351 c377 -376 379 -377 478 -376 79 1 133 34 250 151 58 59 117 127 129 152 32 61 32 148 1 210 -28 55 -1407 1438 -1461 1465 -45 23 -145 29 -192 12z"/>
 <path d="M2195 8885 c-355 -48 -615 -164 -812 -362 -95 -97 -155 -184 -218 -318 -88 -185 -128 -355 -145 -610 -13 -208 -13 -5331 0 -5490 34 -394 157 -685 382 -900 221 -212 501 -324 892 -355 168 -13 1328 -13 1493 0 732 60 1154 451 1248 1159 11 82 15 254 15 764 0 628 -1 659 -19 695 -11 22 -35 45 -57 57 -36 19 -57 20 -584 20 -507 0 -549 -1 -586 -18 -81 -37 -78 -19 -85 -572 -4 -359 -9 -501 -18 -530 -42 -128 -128 -206 -261 -235 -75 -16 -759 -9 -812 8 -91 31 -178 117 -210 210 -10 30 -13 528 -16 2447 l-3 2410 22 68 c25 77 62 130 121 170 84 56 115 60 461 65 189 2 350 -1 396 -7 155 -21 245 -87 294 -219 21 -55 22 -78 27 -552 6 -545 3 -522 68 -567 25 -17 62 -18 597 -18 l570 0 33 23 c65 47 62 15 62 736 0 718 -4 784 -59 998 -61 233 -155 406 -308 561 -176 178 -407 291 -710 349 -115 22 -137 22 -898 24 -606 2 -802 -1 -880 -11z"/>
 <path d="M6145 8881 c-23 -10 -49 -33 -60 -52 -20 -34 -20 -52 -20 -3959 0 -3828 0 -3926 19 -3956 10 -17 33 -40 50 -50 30 -18 78 -19 1336 -22 1437 -3 1451 -2 1685 58 231 60 396 148 554 295 36 33 62 53 59 43 -19 -49 -398 -1222 -398 -1229 0 -5 559 -9 1315 -9 l1315 0 0 4053 -1 4052 -57 -175 c-32 -96 -458 -1407 -948 -2913 l-889 -2738 -6 1338 c-4 932 -9 1361 -17 1413 -48 311 -133 527 -277 708 -179 222 -421 361 -750 427 -195 40 -416 48 -1052 41 l-563 -6 -2 1297 -3 1298 -22 35 c-43 68 -8 65 -648 67 -547 3 -582 2 -620 -16z m2253 -4021 c39 -5 94 -19 122 -31 59 -25 133 -101 160 -164 39 -90 41 -172 38 -1200 l-3 -990 -24 -67 c-27 -78 -74 -137 -137 -174 -88 -52 -111 -54 -631 -54 l-483 0 0 1345 0 1345 443 0 c243 0 475 -5 515 -10z"/>
 </g>
<g id="layer106" fill="#ffffff" stroke="none">
 <path d="M9318 11147 c-20 -8 -54 -28 -75 -45 -21 -17 -343 -336 -715 -709 -733 -734 -721 -720 -721 -828 0 -84 31 -136 151 -257 118 -117 172 -150 251 -151 99 -1 101 0 479 376 l352 352 0 -1500 c0 -1063 3 -1512 11 -1540 16 -56 100 -139 158 -155 29 -7 105 -10 215 -8 187 3 204 8 265 69 72 71 66 -75 69 1614 l2 1519 353 -351 c377 -376 379 -377 478 -376 79 1 133 34 250 151 58 59 117 127 129 152 32 61 32 148 1 210 -28 55 -1407 1438 -1461 1465 -45 23 -145 29 -192 12z"/>
 <path d="M2286 8889 c-387 -28 -689 -152 -905 -372 -167 -170 -278 -395 -334 -682 l-21 -110 -3 -2800 c-4 -3077 -7 -2904 57 -3147 110 -424 376 -710 784 -843 246 -80 429 -95 1176 -95 578 0 794 9 955 41 628 121 973 516 1045 1194 8 75 10 311 8 740 l-3 630 -22 31 c-47 66 -32 65 -650 62 -529 -3 -559 -4 -586 -22 -63 -42 -61 -33 -67 -571 -4 -307 -10 -501 -17 -520 -51 -147 -148 -225 -304 -245 -100 -13 -574 -13 -677 0 -183 23 -282 110 -318 279 -21 100 -21 4723 1 4824 28 133 96 216 212 260 55 21 75 22 413 25 378 4 425 0 510 -43 76 -38 130 -105 163 -200 7 -19 13 -217 16 -525 6 -462 7 -497 25 -526 10 -17 33 -40 50 -50 29 -18 60 -19 591 -19 l560 0 36 23 c71 43 69 27 69 735 0 503 -3 657 -15 754 -70 567 -348 931 -833 1093 -126 42 -265 67 -436 80 -167 12 -1309 11 -1480 -1z"/>
 <path d="M6175 8891 c-48 -12 -72 -32 -92 -75 -17 -39 -18 -198 -18 -3951 l0 -3910 20 -35 c12 -19 36 -43 55 -55 35 -20 49 -20 1225 -23 1485 -4 1612 2 1874 88 431 141 709 454 806 911 44 206 45 235 45 1679 0 1379 -2 1455 -36 1635 -38 197 -134 426 -233 556 -207 272 -517 429 -946 479 -54 6 -361 10 -767 10 l-678 0 0 1290 c0 1425 4 1345 -63 1386 -31 18 -56 19 -597 21 -311 1 -578 -2 -595 -6z m2279 -4037 c83 -21 139 -56 185 -114 81 -102 76 -22 76 -1220 l0 -1065 -22 -57 c-27 -73 -63 -120 -121 -158 -97 -64 -105 -65 -647 -65 l-490 0 -3 1348 -2 1347 481 0 c405 0 491 -2 543 -16z"/>
 </g>

</svg>